<svg xmlns="http://www.w3.org/2000/svg" viewBox="0 0 90.02 45.66"><defs><style>.cls-1{fill:#fff;}.cls-2{fill:#bfa170;}.cls-3{fill:#231f20;}</style></defs><g id="Layer_2" data-name="Layer 2"><g id="Layer_1-2" data-name="Layer 1"><rect width="90.02" height="45.66" rx="3.55"/><g id="Logo_Amaddre" data-name="Logo Amaddre"><path class="cls-1" d="M29,30.78c0,.76,0,2.06,0,3.89a.46.46,0,0,0,.19.38l1,.74v0H25.59v0l1-.74a.41.41,0,0,0,.21-.36s0-.51,0-1.5,0-1.64,0-1.93a5.27,5.27,0,0,0-.32-2.12,1.1,1.1,0,0,0-1.09-.68,1.8,1.8,0,0,0-1.56,1v5.17a.46.46,0,0,0,.19.38l1,.74v0H20.49v0l1-.74a.45.45,0,0,0,.18-.38v-6a.48.48,0,0,0-.18-.4l-1-.86v0h3.35v2a2.58,2.58,0,0,1,2.63-2.1,2.29,2.29,0,0,1,2.37,2.08,3,3,0,0,1,1-1.52,2.74,2.74,0,0,1,1.73-.56,2.13,2.13,0,0,1,1.83.88,4.42,4.42,0,0,1,.64,2.63c0,.76,0,2.06,0,3.89a.46.46,0,0,0,.19.38l1,.74v0H30.69v0l1-.74a.41.41,0,0,0,.21-.36s0-.52,0-1.5,0-1.61,0-1.9a5.49,5.49,0,0,0-.32-2.14,1.1,1.1,0,0,0-1.09-.69,2,2,0,0,0-1.65,1A6.36,6.36,0,0,1,29,30.78Z"/><path class="cls-1" d="M52,23.36V34.54a.48.48,0,0,0,.17.39l1,.86v0H49.84V34.14A2.56,2.56,0,0,1,47.35,36,2.78,2.78,0,0,1,45,34.79a5,5,0,0,1-.9-3.12,4.89,4.89,0,0,1,1-3.19,3.11,3.11,0,0,1,2.49-1.21,2.29,2.29,0,0,1,2.22,1.44V24.92a.46.46,0,0,0-.18-.39l-1-.74v0ZM48.38,34.91A1.88,1.88,0,0,0,49.84,34v-5.1a1.68,1.68,0,0,0-1.41-.79,1.65,1.65,0,0,0-1.42.84,4.73,4.73,0,0,0-.56,2.57A4.81,4.81,0,0,0,47,34.07,1.6,1.6,0,0,0,48.38,34.91Z"/><path class="cls-1" d="M61.58,23.36V34.54a.48.48,0,0,0,.17.39l1,.86v0H59.42V34.14A2.54,2.54,0,0,1,56.93,36a2.78,2.78,0,0,1-2.32-1.17,5,5,0,0,1-.89-3.12,4.89,4.89,0,0,1,1-3.19,3.13,3.13,0,0,1,2.49-1.21,2.29,2.29,0,0,1,2.22,1.44V24.92a.46.46,0,0,0-.18-.39l-1-.74v0ZM58,34.91A1.88,1.88,0,0,0,59.42,34v-5.1A1.68,1.68,0,0,0,58,28.1a1.66,1.66,0,0,0-1.42.84A4.73,4.73,0,0,0,56,31.51a4.81,4.81,0,0,0,.54,2.56A1.63,1.63,0,0,0,58,34.91Z"/><path class="cls-1" d="M66.64,30v4.52a.42.42,0,0,0,.25.39l1.76.86v0H63.3v0l1-.74a.47.47,0,0,0,.17-.38v-6a.5.5,0,0,0-.17-.4l-1-.86v0h3.34v2.42A4.06,4.06,0,0,1,67.51,28a2,2,0,0,1,1.62-.77,1.46,1.46,0,0,1,1,.36l-.91,2.61h0L68.1,28.47a.19.19,0,0,0-.22,0,1.53,1.53,0,0,0-.55.43,3.49,3.49,0,0,0-.34.48C66.93,29.45,66.82,29.68,66.64,30Z"/><path class="cls-1" d="M77.77,31.05H72.62v.27a3.92,3.92,0,0,0,.7,2.52,2.16,2.16,0,0,0,1.77.87,2.74,2.74,0,0,0,2.66-1.87h0Q77.21,36,74.25,36a3.74,3.74,0,0,1-2.74-1.09,4.27,4.27,0,0,1-1.1-3.18,5.84,5.84,0,0,1,.33-2.05,3.47,3.47,0,0,1,.91-1.38,3.76,3.76,0,0,1,1.25-.75,4.31,4.31,0,0,1,1.44-.24,3.75,3.75,0,0,1,2.46.83,3.07,3.07,0,0,1,1,2.52C77.81,30.72,77.79,30.87,77.77,31.05Zm-3.47-3.5c-1,0-1.59,1.06-1.68,3.19h3.07a1.62,1.62,0,0,0,0-.33C75.71,28.5,75.24,27.55,74.3,27.55Z"/><path class="cls-1" d="M21.32,30.56a7.12,7.12,0,0,1-2.33.73v-.55A3.89,3.89,0,0,0,18.19,28a3.36,3.36,0,0,0-2.4-.71,8.56,8.56,0,0,0-3.15.6l.91,2.34h0l1.2-2.42c.06-.11.11-.17.16-.19a1.15,1.15,0,0,1,.36,0,1.35,1.35,0,0,1,1.18.58,2.71,2.71,0,0,1,.4,1.55v.07l0,1.54c-.59-.07-1-.15-1-.15h0a4.47,4.47,0,0,0-.76-.07,3.12,3.12,0,0,0-2,.68,2.29,2.29,0,0,0-.85,1.88,2.19,2.19,0,0,0,.67,1.7A2.29,2.29,0,0,0,14.5,36,2.37,2.37,0,0,0,16,35.49a2.49,2.49,0,0,0,.88-1.28,1.83,1.83,0,0,0,.46,1.3,1.5,1.5,0,0,0,1.12.45,1.63,1.63,0,0,0,.92-.26,1.4,1.4,0,0,0,.56-.67,1.26,1.26,0,0,0,.12-.58h0a.54.54,0,0,1-.52.41q-.62,0-.57-1.08l.07-1.7a10.79,10.79,0,0,1-1.22.06c-.3,0-.64,0-.9,0l0,1.94a1.5,1.5,0,0,1-1.29.81,1.07,1.07,0,0,1-.85-.39,1.66,1.66,0,0,1-.34-1.08,1.88,1.88,0,0,1,.45-1.29A1.51,1.51,0,0,1,16,31.58a2.86,2.86,0,0,1,.43,0h0l.6.08h0l.45,0h.33c.29,0,.6,0,.93,0l.22,0h0a6.13,6.13,0,0,0,3.27-1.33,7.66,7.66,0,0,0,1.2-1.51A9.78,9.78,0,0,1,21.32,30.56Z"/><path class="cls-1" d="M44.86,30.56a7.12,7.12,0,0,1-2.33.73v-.55A3.89,3.89,0,0,0,41.73,28a3.36,3.36,0,0,0-2.4-.71,8.56,8.56,0,0,0-3.15.6l.91,2.34h0l1.2-2.42c.06-.11.11-.17.16-.19a1.2,1.2,0,0,1,.36,0,1.35,1.35,0,0,1,1.18.58,2.71,2.71,0,0,1,.4,1.55v.07l0,1.54c-.59-.07-1-.15-1-.15h0a4.47,4.47,0,0,0-.76-.07,3.07,3.07,0,0,0-2,.68,2.26,2.26,0,0,0-.85,1.88,2.21,2.21,0,0,0,.66,1.7A2.29,2.29,0,0,0,38,36a2.37,2.37,0,0,0,1.45-.47,2.49,2.49,0,0,0,.88-1.28,1.87,1.87,0,0,0,.46,1.3A1.5,1.5,0,0,0,42,36a1.63,1.63,0,0,0,.92-.26,1.4,1.4,0,0,0,.56-.67,1.26,1.26,0,0,0,.12-.58h0a.54.54,0,0,1-.52.41q-.61,0-.57-1.08l.07-1.7a10.79,10.79,0,0,1-1.22.06c-.3,0-.64,0-.89,0l0,1.94a1.49,1.49,0,0,1-1.29.81,1.07,1.07,0,0,1-.85-.39,1.66,1.66,0,0,1-.34-1.08,1.88,1.88,0,0,1,.45-1.29,1.51,1.51,0,0,1,1.22-.52,2.74,2.74,0,0,1,.43,0h0l.6.08h0l.45,0h.33c.29,0,.6,0,.93,0l.22,0h0a6.13,6.13,0,0,0,3.27-1.33A7.66,7.66,0,0,0,47,28.82,9.78,9.78,0,0,1,44.86,30.56Z"/><path class="cls-1" d="M78.66,34.89h0a1,1,0,0,1,2.06,0h0a1,1,0,0,1-2.06,0Zm1.94,0h0a.91.91,0,1,0-1.82,0h0a.91.91,0,1,0,1.82,0Zm-1.46,0h0a.59.59,0,0,1,1-.39l-.15.18a.39.39,0,0,0-.28-.12.32.32,0,0,0-.31.33h0a.31.31,0,0,0,.31.33.4.4,0,0,0,.28-.12l.16.15a.54.54,0,0,1-.45.2A.55.55,0,0,1,79.14,34.88Z"/><path class="cls-2" d="M86.48,17.86a56.91,56.91,0,0,0-10.43-3.54A126.85,126.85,0,0,0,45,10.8a126.85,126.85,0,0,0-31,3.52A56.91,56.91,0,0,0,3.54,17.86a.18.18,0,0,0-.1.16v24a.18.18,0,0,0,.18.18H86.4a.18.18,0,0,0,.18-.18V18A.18.18,0,0,0,86.48,17.86Zm-.27,24H3.81V18.13a58.55,58.55,0,0,1,10.25-3.45A126,126,0,0,1,45,11.16a126.47,126.47,0,0,1,30.93,3.51,59.27,59.27,0,0,1,10.27,3.46Z"/><path class="cls-2" d="M45.06,3.3a11.81,11.81,0,0,0-8.72,3.43v11.7H53.79V6.73A11.85,11.85,0,0,0,45.06,3.3Z"/><path class="cls-3" d="M50.08,10.17A5.71,5.71,0,0,1,48.3,11l-.54.1v-.44a3.09,3.09,0,0,0-.64-2.2,2.66,2.66,0,0,0-1.92-.56,7,7,0,0,0-2.5.47l.73,1.86h0l1-1.92c0-.09.09-.14.13-.15a.81.81,0,0,1,.28,0,1,1,0,0,1,.94.46,2.11,2.11,0,0,1,.32,1.23v.06l0,1.22c-.47-.05-.83-.12-.83-.12h0a2.93,2.93,0,0,0-.61-.06,2.46,2.46,0,0,0-1.58.54,1.82,1.82,0,0,0-.68,1.5,1.77,1.77,0,0,0,.53,1.35,1.81,1.81,0,0,0,1.29.49,1.84,1.84,0,0,0,1.15-.37,2,2,0,0,0,.71-1,1.5,1.5,0,0,0,.36,1,1.22,1.22,0,0,0,.9.35,1.35,1.35,0,0,0,.73-.2,1.22,1.22,0,0,0,.44-.54,1,1,0,0,0,.1-.46h0a.41.41,0,0,1-.41.33c-.33,0-.48-.29-.45-.86l.05-1.35c-.34,0-.7,0-1,0l-.71,0,0,1.54a1.17,1.17,0,0,1-1,.65.87.87,0,0,1-.68-.32,1.32,1.32,0,0,1-.26-.86,1.47,1.47,0,0,1,.35-1,1.2,1.2,0,0,1,1-.41,1.9,1.9,0,0,1,.35,0h0l.48.06h0l.35,0h.26a6.36,6.36,0,0,0,.74,0l.18,0h0l.34,0A3.65,3.65,0,0,0,50.33,10h0Z"/></g></g></g></svg>